<svg xmlns="http://www.w3.org/2000/svg" width="1040" height="640" viewBox="0 0 1040 640">
<rect width="100%" height="100%" fill="#ffffff"/>
<defs><marker id="arrow" markerWidth="10" markerHeight="10" refX="8" refY="3" orient="auto" markerUnits="strokeWidth"><path d="M0,0 L0,6 L9,3 z" fill="#1f2937"/></marker></defs>
<style>text{font-family:Arial,Helvetica,sans-serif;font-size:13px;fill:#111827}.title{font-size:18px;font-weight:bold}.box{fill:#f8fafc;stroke:#334155;stroke-width:1.5}.core{fill:#ecfeff;stroke:#0f766e;stroke-width:2}.warn{fill:#fff7ed;stroke:#c2410c;stroke-width:1.5}.note{font-size:12px;fill:#475569}.line{stroke:#1f2937;stroke-width:1.5;fill:none;marker-end:url(#arrow)}</style>
<text class="title" x="30" y="34">MSP430F5529 多点温度/环境监测系统软件流程图</text>
<rect class="box" x="410" y="60" width="230" height="100" rx="6"/>
<text x="422" y="82" font-weight="bold">上电初始化</text>
<text class="note" x="422" y="104">时钟/GPIO/tick</text>
<text class="note" x="422" y="121">UART/EC11/传感器/OLED/Flash</text>
<rect class="box" x="80" y="200" width="230" height="100" rx="6"/>
<text x="92" y="222" font-weight="bold">周期采样</text>
<text class="note" x="92" y="244">DHT11 温湿度</text>
<text class="note" x="92" y="261">MQ-2 ADC 平均</text>
<text class="note" x="92" y="278">HC-SR04 距离</text>
<rect class="core" x="410" y="200" width="230" height="100" rx="6"/>
<text x="422" y="222" font-weight="bold">应用调度</text>
<text class="note" x="422" y="244">报警等级计算</text>
<text class="note" x="422" y="261">阈值/命令/历史记录</text>
<rect class="box" x="740" y="200" width="230" height="100" rx="6"/>
<text x="752" y="222" font-weight="bold">显示与上报</text>
<text class="note" x="752" y="244">OLED 四行刷新</text>
<text class="note" x="752" y="261">DATA 蓝牙主动上传</text>
<rect class="box" x="80" y="390" width="230" height="100" rx="6"/>
<text x="92" y="412" font-weight="bold">蓝牙命令</text>
<text class="note" x="92" y="434">? i w h x</text>
<text class="note" x="92" y="451">T+ T- SETT=</text>
<text class="note" x="92" y="468">HIST/DUMP/CLRLOG</text>
<rect class="box" x="410" y="390" width="230" height="100" rx="6"/>
<text x="422" y="412" font-weight="bold">本地控制</text>
<text class="note" x="422" y="434">EC11 旋转调阈值</text>
<text class="note" x="422" y="451">按键立即刷新/保存提示</text>
<rect class="box" x="740" y="390" width="230" height="100" rx="6"/>
<text x="752" y="412" font-weight="bold">报警与存储</text>
<text class="note" x="752" y="434">蜂鸣器节奏服务</text>
<text class="note" x="752" y="451">Flash 定时写入</text>
<path class="line" d="M525,160 L525,200"/>
<path class="line" d="M310,250 L410,250"/>
<text class="note" text-anchor="middle" x="360" y="244">sample</text>
<path class="line" d="M640,250 L740,250"/>
<text class="note" text-anchor="middle" x="690" y="244">state</text>
<path class="line" d="M310,440 L410,440"/>
<text class="note" text-anchor="middle" x="360" y="434">command</text>
<path class="line" d="M525,300 L525,390"/>
<text class="note" text-anchor="middle" x="525" y="339">threshold</text>
<path class="line" d="M640,440 L740,440"/>
<text class="note" text-anchor="middle" x="690" y="434">alarm/log</text>
<path class="line" d="M855,300 L855,390"/>
<text class="note" text-anchor="middle" x="855" y="339">periodic</text>
<path class="line" d="M740,250 L525,60"/>
<text class="note" text-anchor="middle" x="632" y="149">loop</text>
<text class="note" x="30" y="610">验证：run_verification.ps1 覆盖 clean build、静态检查、可读性审计、协议仿真、整板场景、Flash 日志和阈值调整。</text>
</svg>