<svg xmlns="http://www.w3.org/2000/svg" width="980" height="620" viewBox="0 0 980 620">
<rect width="100%" height="100%" fill="#ffffff"/>
<defs><marker id="arrow" markerWidth="10" markerHeight="10" refX="8" refY="3" orient="auto" markerUnits="strokeWidth"><path d="M0,0 L0,6 L9,3 z" fill="#1f2937"/></marker></defs>
<style>text{font-family:Arial,Helvetica,sans-serif;font-size:13px;fill:#111827}.title{font-size:18px;font-weight:bold}.box{fill:#f8fafc;stroke:#334155;stroke-width:1.5}.core{fill:#ecfeff;stroke:#0f766e;stroke-width:2}.note{font-size:12px;fill:#475569}.line{stroke:#1f2937;stroke-width:1.5;fill:none;marker-end:url(#arrow)}</style>
<text class="title" x="30" y="34">MSP430F5529 蓝牙遥控音频播放器软件流程图</text>
<rect class="box" x="390" y="60" width="210" height="90" rx="6"/>
<text x="402" y="82" font-weight="bold">上电复位</text>
<text class="note" x="402" y="104">board_init</text>
<text class="note" x="402" y="121">UART/按键/I2S 初始化</text>
<rect class="box" x="390" y="170" width="210" height="90" rx="6"/>
<text x="402" y="192" font-weight="bold">播放器初始化</text>
<text class="note" x="402" y="214">挂载 TF 卡</text>
<text class="note" x="402" y="231">扫描并打开首个 WAV</text>
<rect class="box" x="90" y="300" width="210" height="90" rx="6"/>
<text x="102" y="322" font-weight="bold">输入轮询</text>
<text class="note" x="102" y="344">HC-05 命令</text>
<text class="note" x="102" y="361">EC11 / S1/S2/S4</text>
<rect class="core" x="390" y="300" width="210" height="90" rx="6"/>
<text x="402" y="322" font-weight="bold">状态机处理</text>
<text class="note" x="402" y="344">播放/暂停/停止</text>
<text class="note" x="402" y="361">音量/静音/播放顺序</text>
<rect class="box" x="690" y="300" width="210" height="90" rx="6"/>
<text x="702" y="322" font-weight="bold">音频服务</text>
<text class="note" x="702" y="344">FatFs 读取 WAV</text>
<text class="note" x="702" y="361">软件 I2S 输出 DAC</text>
<rect class="box" x="390" y="470" width="210" height="90" rx="6"/>
<text x="402" y="492" font-weight="bold">状态与诊断</text>
<text class="note" x="402" y="514">status 自动上报</text>
<text class="note" x="402" y="531">display 三行帧 / 自检 / 测试音</text>
<path class="line" d="M495,150 L495,170"/>
<path class="line" d="M495,260 L495,300"/>
<path class="line" d="M300,345 L390,345"/>
<text class="note" text-anchor="middle" x="345" y="339">events</text>
<path class="line" d="M600,345 L690,345"/>
<text class="note" text-anchor="middle" x="645" y="339">PLAYING</text>
<path class="line" d="M795,390 L600,505"/>
<text class="note" text-anchor="middle" x="697" y="441">EOF/error</text>
<path class="line" d="M495,390 L495,470"/>
<text class="note" text-anchor="middle" x="495" y="424">report</text>
<path class="line" d="M390,515 L195,390"/>
<text class="note" text-anchor="middle" x="292" y="446">next poll</text>
<text class="note" x="30" y="585">验证：run_verification.ps1 覆盖编译、协议仿真、整板场景、按键长按、显示预览和报告生成。</text>
</svg>